# xmcd CD database file
#
# Track frame offsets:
#	150
#	22236
#	44553
#	62294
#	69367
#
# Disc length: 1218 seconds
#
# Revision: 1
# Processed by: cddbd v1.5.2PL0 Copyright (c) Steve Scherf et al.
# Submitted via: CDex 1.70beta2
#
DISCID=3f04c005
DTITLE=SunSetSwish - ありがとう
DYEAR=2007
DGENRE=Anime
TTITLE0=ありがとう
TTITLE1=笑顔が素敵さ
TTITLE2=Top Of The Morning
TTITLE3=ありがとう（おお振りVer.）
TTITLE4=ありがとう（オリジナル・カラオケ）
EXTD=YEAR: 2007
EXTT0=
EXTT1=
EXTT2=
EXTT3=
EXTT4=
PLAYORDER=
